<?xml version="1.0" encoding="utf-8"?>
<svg viewBox="0 0 500 500" xmlns="http://www.w3.org/2000/svg">
  <g transform="matrix(1, 0, 0, 1, -258.505676, -244.91333)">
    <g>
      <g>
        <g>
          <g>
            <path d="M500,10C229.4,10,10,229.4,10,500s219.4,490,490,490s490-219.4,490-490S770.6,10,500,10z M500,928.7C263.6,928.7,71.3,736.4,71.3,500C71.3,263.6,263.6,71.3,500,71.3c236.4,0,428.7,192.3,428.7,428.7C928.7,736.4,736.4,928.7,500,928.7z" style="fill: rgb(225, 0, 0);"/>
            <path d="M622.5,316.2h-245c-33.8,0-61.2,27.4-61.2,61.2v245c0,33.8,27.4,61.3,61.2,61.3h245c33.8,0,61.3-27.4,61.3-61.3v-245C683.7,343.7,656.3,316.2,622.5,316.2z" style="fill: rgb(225, 0, 0);"/>
          </g>
        </g>
      </g>
    </g>
    <g/>
    <g/>
    <g/>
    <g/>
    <g/>
    <g/>
    <g/>
    <g/>
    <g/>
    <g/>
    <g/>
    <g/>
    <g/>
    <g/>
    <g/>
  </g>
</svg>